<mxfile host="app.diagrams.net" modified="2023-10-31T08:11:49.034Z" agent="Mozilla/5.0 (Windows NT 10.0; Win64; x64) AppleWebKit/537.36 (KHTML, like Gecko) Chrome/118.0.0.0 Safari/537.36" etag="gJhYrd__aI621yyhKpIL" version="22.0.8" type="device">
  <diagram name="Page-1" id="p6USa-O2iyDXCF2wQGJL">
    <mxGraphModel dx="900" dy="1990" grid="1" gridSize="10" guides="1" tooltips="1" connect="1" arrows="1" fold="1" page="1" pageScale="1" pageWidth="850" pageHeight="1100" math="0" shadow="0">
      <root>
        <mxCell id="0" />
        <mxCell id="1" parent="0" />
        <mxCell id="3aWx-54ZoUzIvfA6hRjI-23" value="" style="rounded=0;whiteSpace=wrap;html=1;" vertex="1" parent="1">
          <mxGeometry x="980" y="-240" width="550" height="531.5" as="geometry" />
        </mxCell>
        <mxCell id="3aWx-54ZoUzIvfA6hRjI-3" value="" style="rounded=0;whiteSpace=wrap;html=1;" vertex="1" parent="1">
          <mxGeometry x="1080" y="-710" width="290" height="400" as="geometry" />
        </mxCell>
        <mxCell id="3aWx-54ZoUzIvfA6hRjI-1" value="" style="outlineConnect=0;dashed=0;verticalLabelPosition=bottom;verticalAlign=top;align=center;html=1;shape=mxgraph.aws3.ec2;fillColor=#F58534;gradientColor=none;" vertex="1" parent="1">
          <mxGeometry x="880" y="-620" width="140" height="100" as="geometry" />
        </mxCell>
        <mxCell id="3aWx-54ZoUzIvfA6hRjI-8" style="edgeStyle=orthogonalEdgeStyle;rounded=0;orthogonalLoop=1;jettySize=auto;html=1;exitX=1;exitY=0.5;exitDx=0;exitDy=0;" edge="1" parent="1" source="5C_58_ZsRmwT5ZczURQ5-1" target="3aWx-54ZoUzIvfA6hRjI-4">
          <mxGeometry relative="1" as="geometry" />
        </mxCell>
        <mxCell id="3aWx-54ZoUzIvfA6hRjI-10" style="edgeStyle=orthogonalEdgeStyle;rounded=0;orthogonalLoop=1;jettySize=auto;html=1;exitX=0.5;exitY=1;exitDx=0;exitDy=0;entryX=0.5;entryY=0;entryDx=0;entryDy=0;" edge="1" parent="1" source="5C_58_ZsRmwT5ZczURQ5-1" target="3aWx-54ZoUzIvfA6hRjI-9">
          <mxGeometry relative="1" as="geometry" />
        </mxCell>
        <mxCell id="5C_58_ZsRmwT5ZczURQ5-1" value="Global model" style="rounded=0;whiteSpace=wrap;html=1;" parent="1" vertex="1">
          <mxGeometry x="1165" y="-650" width="120" height="60" as="geometry" />
        </mxCell>
        <mxCell id="3aWx-54ZoUzIvfA6hRjI-2" value="EC2 instance" style="text;html=1;align=center;verticalAlign=middle;resizable=0;points=[];autosize=1;strokeColor=none;fillColor=none;" vertex="1" parent="1">
          <mxGeometry x="905" y="-660" width="90" height="30" as="geometry" />
        </mxCell>
        <mxCell id="3aWx-54ZoUzIvfA6hRjI-5" style="edgeStyle=orthogonalEdgeStyle;rounded=0;orthogonalLoop=1;jettySize=auto;html=1;exitX=0;exitY=0.5;exitDx=0;exitDy=0;exitPerimeter=0;" edge="1" parent="1" source="3aWx-54ZoUzIvfA6hRjI-4" target="5C_58_ZsRmwT5ZczURQ5-1">
          <mxGeometry relative="1" as="geometry" />
        </mxCell>
        <mxCell id="3aWx-54ZoUzIvfA6hRjI-34" style="edgeStyle=orthogonalEdgeStyle;rounded=0;orthogonalLoop=1;jettySize=auto;html=1;exitX=1;exitY=0.5;exitDx=0;exitDy=0;exitPerimeter=0;" edge="1" parent="1" source="3aWx-54ZoUzIvfA6hRjI-4">
          <mxGeometry relative="1" as="geometry">
            <mxPoint x="1580" y="-620" as="targetPoint" />
          </mxGeometry>
        </mxCell>
        <mxCell id="3aWx-54ZoUzIvfA6hRjI-4" value="" style="outlineConnect=0;dashed=0;verticalLabelPosition=bottom;verticalAlign=top;align=center;html=1;shape=mxgraph.aws3.s3;fillColor=#E05243;gradientColor=none;" vertex="1" parent="1">
          <mxGeometry x="1453.25" y="-677.5" width="93.5" height="115" as="geometry" />
        </mxCell>
        <mxCell id="3aWx-54ZoUzIvfA6hRjI-6" style="edgeStyle=orthogonalEdgeStyle;rounded=0;orthogonalLoop=1;jettySize=auto;html=1;exitX=1;exitY=0.5;exitDx=0;exitDy=0;exitPerimeter=0;entryX=-0.014;entryY=0.355;entryDx=0;entryDy=0;entryPerimeter=0;" edge="1" parent="1" source="3aWx-54ZoUzIvfA6hRjI-1" target="3aWx-54ZoUzIvfA6hRjI-3">
          <mxGeometry relative="1" as="geometry" />
        </mxCell>
        <mxCell id="3aWx-54ZoUzIvfA6hRjI-7" value="S3 bucket" style="text;html=1;align=center;verticalAlign=middle;resizable=0;points=[];autosize=1;strokeColor=none;fillColor=none;" vertex="1" parent="1">
          <mxGeometry x="1460" y="-720" width="80" height="30" as="geometry" />
        </mxCell>
        <mxCell id="3aWx-54ZoUzIvfA6hRjI-11" style="edgeStyle=orthogonalEdgeStyle;rounded=0;orthogonalLoop=1;jettySize=auto;html=1;exitX=0.75;exitY=0;exitDx=0;exitDy=0;entryX=0.75;entryY=1;entryDx=0;entryDy=0;" edge="1" parent="1" source="3aWx-54ZoUzIvfA6hRjI-9" target="5C_58_ZsRmwT5ZczURQ5-1">
          <mxGeometry relative="1" as="geometry" />
        </mxCell>
        <mxCell id="3aWx-54ZoUzIvfA6hRjI-9" value="update weights" style="rounded=0;whiteSpace=wrap;html=1;" vertex="1" parent="1">
          <mxGeometry x="1165" y="-540" width="120" height="60" as="geometry" />
        </mxCell>
        <mxCell id="3aWx-54ZoUzIvfA6hRjI-13" style="edgeStyle=orthogonalEdgeStyle;rounded=0;orthogonalLoop=1;jettySize=auto;html=1;exitX=0.5;exitY=0;exitDx=0;exitDy=0;entryX=0.5;entryY=1;entryDx=0;entryDy=0;" edge="1" parent="1" source="3aWx-54ZoUzIvfA6hRjI-12" target="3aWx-54ZoUzIvfA6hRjI-9">
          <mxGeometry relative="1" as="geometry" />
        </mxCell>
        <mxCell id="3aWx-54ZoUzIvfA6hRjI-12" value="get local model weights" style="rounded=0;whiteSpace=wrap;html=1;" vertex="1" parent="1">
          <mxGeometry x="1165" y="-440" width="120" height="60" as="geometry" />
        </mxCell>
        <mxCell id="3aWx-54ZoUzIvfA6hRjI-48" value="" style="edgeStyle=orthogonalEdgeStyle;rounded=0;orthogonalLoop=1;jettySize=auto;html=1;" edge="1" parent="1" source="3aWx-54ZoUzIvfA6hRjI-15" target="3aWx-54ZoUzIvfA6hRjI-19">
          <mxGeometry relative="1" as="geometry" />
        </mxCell>
        <mxCell id="3aWx-54ZoUzIvfA6hRjI-55" style="edgeStyle=orthogonalEdgeStyle;rounded=0;orthogonalLoop=1;jettySize=auto;html=1;entryX=0;entryY=0.25;entryDx=0;entryDy=0;" edge="1" parent="1" source="3aWx-54ZoUzIvfA6hRjI-15" target="3aWx-54ZoUzIvfA6hRjI-52">
          <mxGeometry relative="1" as="geometry" />
        </mxCell>
        <mxCell id="3aWx-54ZoUzIvfA6hRjI-56" value="user interactions ,&lt;br&gt;user information" style="edgeLabel;html=1;align=center;verticalAlign=middle;resizable=0;points=[];" vertex="1" connectable="0" parent="3aWx-54ZoUzIvfA6hRjI-55">
          <mxGeometry x="0.2348" y="-2" relative="1" as="geometry">
            <mxPoint as="offset" />
          </mxGeometry>
        </mxCell>
        <mxCell id="3aWx-54ZoUzIvfA6hRjI-15" value="" style="sketch=0;outlineConnect=0;fontColor=#232F3E;gradientColor=none;fillColor=#232F3D;strokeColor=none;dashed=0;verticalLabelPosition=bottom;verticalAlign=top;align=center;html=1;fontSize=12;fontStyle=0;aspect=fixed;pointerEvents=1;shape=mxgraph.aws4.user;" vertex="1" parent="1">
          <mxGeometry x="1700" y="-115.5" width="48" height="48" as="geometry" />
        </mxCell>
        <mxCell id="3aWx-54ZoUzIvfA6hRjI-19" value="" style="sketch=0;outlineConnect=0;fontColor=#232F3E;gradientColor=none;fillColor=#8C4FFF;strokeColor=none;dashed=0;verticalLabelPosition=bottom;verticalAlign=top;align=center;html=1;fontSize=12;fontStyle=0;aspect=fixed;pointerEvents=1;shape=mxgraph.aws4.search_documents;" vertex="1" parent="1">
          <mxGeometry x="1600" y="-122.5" width="68" height="78" as="geometry" />
        </mxCell>
        <mxCell id="3aWx-54ZoUzIvfA6hRjI-20" value="" style="outlineConnect=0;dashed=0;verticalLabelPosition=bottom;verticalAlign=top;align=center;html=1;shape=mxgraph.aws3.search_documents;fillColor=#F58534;gradientColor=none;" vertex="1" parent="1">
          <mxGeometry x="1596" y="34.5" width="62" height="70" as="geometry" />
        </mxCell>
        <mxCell id="3aWx-54ZoUzIvfA6hRjI-21" value="" style="sketch=0;outlineConnect=0;fillColor=#ffe6cc;strokeColor=#d79b00;dashed=0;verticalLabelPosition=bottom;verticalAlign=top;align=center;html=1;fontSize=12;fontStyle=0;aspect=fixed;pointerEvents=1;shape=mxgraph.aws4.search_documents;" vertex="1" parent="1">
          <mxGeometry x="1600" y="182.5" width="68" height="78" as="geometry" />
        </mxCell>
        <mxCell id="3aWx-54ZoUzIvfA6hRjI-22" value="" style="sketch=0;outlineConnect=0;fontColor=#232F3E;gradientColor=none;fillColor=#01A88D;strokeColor=none;dashed=0;verticalLabelPosition=bottom;verticalAlign=top;align=center;html=1;fontSize=12;fontStyle=0;aspect=fixed;pointerEvents=1;shape=mxgraph.aws4.sagemaker_model;" vertex="1" parent="1">
          <mxGeometry x="1102" y="-98" width="78" height="78" as="geometry" />
        </mxCell>
        <mxCell id="3aWx-54ZoUzIvfA6hRjI-24" value="Sage maker" style="text;html=1;align=center;verticalAlign=middle;resizable=0;points=[];autosize=1;strokeColor=none;fillColor=none;" vertex="1" parent="1">
          <mxGeometry x="1090" y="-128" width="90" height="30" as="geometry" />
        </mxCell>
        <mxCell id="3aWx-54ZoUzIvfA6hRjI-42" style="edgeStyle=orthogonalEdgeStyle;rounded=0;orthogonalLoop=1;jettySize=auto;html=1;exitX=1;exitY=0.5;exitDx=0;exitDy=0;" edge="1" parent="1" source="3aWx-54ZoUzIvfA6hRjI-27" target="3aWx-54ZoUzIvfA6hRjI-19">
          <mxGeometry relative="1" as="geometry" />
        </mxCell>
        <mxCell id="3aWx-54ZoUzIvfA6hRjI-57" value="API request" style="edgeLabel;html=1;align=center;verticalAlign=middle;resizable=0;points=[];" vertex="1" connectable="0" parent="3aWx-54ZoUzIvfA6hRjI-42">
          <mxGeometry x="0.14" y="-2" relative="1" as="geometry">
            <mxPoint as="offset" />
          </mxGeometry>
        </mxCell>
        <mxCell id="3aWx-54ZoUzIvfA6hRjI-27" value="user 1 model" style="rounded=0;whiteSpace=wrap;html=1;" vertex="1" parent="1">
          <mxGeometry x="1360" y="-113.5" width="120" height="60" as="geometry" />
        </mxCell>
        <mxCell id="3aWx-54ZoUzIvfA6hRjI-29" value="User 2" style="text;html=1;align=center;verticalAlign=middle;resizable=0;points=[];autosize=1;strokeColor=none;fillColor=none;" vertex="1" parent="1">
          <mxGeometry x="1694" y="94.5" width="60" height="30" as="geometry" />
        </mxCell>
        <mxCell id="3aWx-54ZoUzIvfA6hRjI-30" value="User 3" style="text;html=1;align=center;verticalAlign=middle;resizable=0;points=[];autosize=1;strokeColor=none;fillColor=none;" vertex="1" parent="1">
          <mxGeometry x="1694" y="251.5" width="60" height="30" as="geometry" />
        </mxCell>
        <mxCell id="3aWx-54ZoUzIvfA6hRjI-31" value="User 1" style="text;html=1;align=center;verticalAlign=middle;resizable=0;points=[];autosize=1;strokeColor=none;fillColor=none;" vertex="1" parent="1">
          <mxGeometry x="1694" y="-60.5" width="60" height="30" as="geometry" />
        </mxCell>
        <mxCell id="3aWx-54ZoUzIvfA6hRjI-61" style="edgeStyle=orthogonalEdgeStyle;rounded=0;orthogonalLoop=1;jettySize=auto;html=1;exitX=0;exitY=0.5;exitDx=0;exitDy=0;entryX=1;entryY=0.5;entryDx=0;entryDy=0;" edge="1" parent="1" source="3aWx-54ZoUzIvfA6hRjI-32" target="3aWx-54ZoUzIvfA6hRjI-60">
          <mxGeometry relative="1" as="geometry" />
        </mxCell>
        <mxCell id="3aWx-54ZoUzIvfA6hRjI-32" value="user 2 model" style="rounded=0;whiteSpace=wrap;html=1;" vertex="1" parent="1">
          <mxGeometry x="1360" y="31.5" width="120" height="60" as="geometry" />
        </mxCell>
        <mxCell id="3aWx-54ZoUzIvfA6hRjI-44" style="edgeStyle=orthogonalEdgeStyle;rounded=0;orthogonalLoop=1;jettySize=auto;html=1;exitX=1;exitY=0.5;exitDx=0;exitDy=0;" edge="1" parent="1" source="3aWx-54ZoUzIvfA6hRjI-33" target="3aWx-54ZoUzIvfA6hRjI-21">
          <mxGeometry relative="1" as="geometry" />
        </mxCell>
        <mxCell id="3aWx-54ZoUzIvfA6hRjI-59" value="API request" style="edgeLabel;html=1;align=center;verticalAlign=middle;resizable=0;points=[];" vertex="1" connectable="0" parent="3aWx-54ZoUzIvfA6hRjI-44">
          <mxGeometry x="0.0414" y="-1" relative="1" as="geometry">
            <mxPoint as="offset" />
          </mxGeometry>
        </mxCell>
        <mxCell id="3aWx-54ZoUzIvfA6hRjI-33" value="user 3 model" style="rounded=0;whiteSpace=wrap;html=1;" vertex="1" parent="1">
          <mxGeometry x="1364" y="191.5" width="120" height="60" as="geometry" />
        </mxCell>
        <mxCell id="3aWx-54ZoUzIvfA6hRjI-38" style="edgeStyle=orthogonalEdgeStyle;rounded=0;orthogonalLoop=1;jettySize=auto;html=1;exitX=1;exitY=0.5;exitDx=0;exitDy=0;" edge="1" parent="1" source="3aWx-54ZoUzIvfA6hRjI-35" target="3aWx-54ZoUzIvfA6hRjI-37">
          <mxGeometry relative="1" as="geometry" />
        </mxCell>
        <mxCell id="3aWx-54ZoUzIvfA6hRjI-35" value="get model weights" style="rounded=0;whiteSpace=wrap;html=1;" vertex="1" parent="1">
          <mxGeometry x="1580" y="-650" width="120" height="60" as="geometry" />
        </mxCell>
        <mxCell id="3aWx-54ZoUzIvfA6hRjI-39" style="edgeStyle=orthogonalEdgeStyle;rounded=0;orthogonalLoop=1;jettySize=auto;html=1;exitX=1;exitY=0.5;exitDx=0;exitDy=0;entryX=0;entryY=0.5;entryDx=0;entryDy=0;" edge="1" parent="1" source="3aWx-54ZoUzIvfA6hRjI-37" target="3aWx-54ZoUzIvfA6hRjI-27">
          <mxGeometry relative="1" as="geometry" />
        </mxCell>
        <mxCell id="3aWx-54ZoUzIvfA6hRjI-40" style="edgeStyle=orthogonalEdgeStyle;rounded=0;orthogonalLoop=1;jettySize=auto;html=1;exitX=1;exitY=0.5;exitDx=0;exitDy=0;entryX=0;entryY=0.5;entryDx=0;entryDy=0;" edge="1" parent="1" source="3aWx-54ZoUzIvfA6hRjI-37" target="3aWx-54ZoUzIvfA6hRjI-32">
          <mxGeometry relative="1" as="geometry" />
        </mxCell>
        <mxCell id="3aWx-54ZoUzIvfA6hRjI-41" style="edgeStyle=orthogonalEdgeStyle;rounded=0;orthogonalLoop=1;jettySize=auto;html=1;exitX=1;exitY=0.5;exitDx=0;exitDy=0;entryX=0;entryY=0.5;entryDx=0;entryDy=0;" edge="1" parent="1" source="3aWx-54ZoUzIvfA6hRjI-37" target="3aWx-54ZoUzIvfA6hRjI-33">
          <mxGeometry relative="1" as="geometry" />
        </mxCell>
        <mxCell id="3aWx-54ZoUzIvfA6hRjI-64" value="GLOBAL UPDATE" style="edgeLabel;html=1;align=center;verticalAlign=middle;resizable=0;points=[];" vertex="1" connectable="0" parent="3aWx-54ZoUzIvfA6hRjI-41">
          <mxGeometry x="-0.6877" y="-2" relative="1" as="geometry">
            <mxPoint as="offset" />
          </mxGeometry>
        </mxCell>
        <mxCell id="3aWx-54ZoUzIvfA6hRjI-37" value="update weights/ update model" style="rounded=0;whiteSpace=wrap;html=1;" vertex="1" parent="1">
          <mxGeometry x="1020" y="30" width="120" height="60" as="geometry" />
        </mxCell>
        <mxCell id="3aWx-54ZoUzIvfA6hRjI-43" style="edgeStyle=orthogonalEdgeStyle;rounded=0;orthogonalLoop=1;jettySize=auto;html=1;exitX=1;exitY=0.5;exitDx=0;exitDy=0;entryX=0;entryY=0.38;entryDx=0;entryDy=0;entryPerimeter=0;" edge="1" parent="1" source="3aWx-54ZoUzIvfA6hRjI-32" target="3aWx-54ZoUzIvfA6hRjI-20">
          <mxGeometry relative="1" as="geometry" />
        </mxCell>
        <mxCell id="3aWx-54ZoUzIvfA6hRjI-58" value="API request" style="edgeLabel;html=1;align=center;verticalAlign=middle;resizable=0;points=[];" vertex="1" connectable="0" parent="3aWx-54ZoUzIvfA6hRjI-43">
          <mxGeometry x="0.1134" y="-1" relative="1" as="geometry">
            <mxPoint as="offset" />
          </mxGeometry>
        </mxCell>
        <mxCell id="3aWx-54ZoUzIvfA6hRjI-49" value="" style="edgeStyle=orthogonalEdgeStyle;rounded=0;orthogonalLoop=1;jettySize=auto;html=1;" edge="1" parent="1" source="3aWx-54ZoUzIvfA6hRjI-45" target="3aWx-54ZoUzIvfA6hRjI-20">
          <mxGeometry relative="1" as="geometry" />
        </mxCell>
        <mxCell id="3aWx-54ZoUzIvfA6hRjI-45" value="" style="sketch=0;outlineConnect=0;fontColor=#232F3E;gradientColor=none;fillColor=#232F3D;strokeColor=none;dashed=0;verticalLabelPosition=bottom;verticalAlign=top;align=center;html=1;fontSize=12;fontStyle=0;aspect=fixed;pointerEvents=1;shape=mxgraph.aws4.user;" vertex="1" parent="1">
          <mxGeometry x="1700" y="37.5" width="48" height="48" as="geometry" />
        </mxCell>
        <mxCell id="3aWx-54ZoUzIvfA6hRjI-50" value="" style="edgeStyle=orthogonalEdgeStyle;rounded=0;orthogonalLoop=1;jettySize=auto;html=1;" edge="1" parent="1" source="3aWx-54ZoUzIvfA6hRjI-46" target="3aWx-54ZoUzIvfA6hRjI-21">
          <mxGeometry relative="1" as="geometry" />
        </mxCell>
        <mxCell id="3aWx-54ZoUzIvfA6hRjI-46" value="" style="sketch=0;outlineConnect=0;fontColor=#232F3E;gradientColor=none;fillColor=#232F3D;strokeColor=none;dashed=0;verticalLabelPosition=bottom;verticalAlign=top;align=center;html=1;fontSize=12;fontStyle=0;aspect=fixed;pointerEvents=1;shape=mxgraph.aws4.user;" vertex="1" parent="1">
          <mxGeometry x="1700" y="191.5" width="48" height="48" as="geometry" />
        </mxCell>
        <mxCell id="3aWx-54ZoUzIvfA6hRjI-65" style="edgeStyle=orthogonalEdgeStyle;rounded=0;orthogonalLoop=1;jettySize=auto;html=1;exitX=0.5;exitY=0;exitDx=0;exitDy=0;" edge="1" parent="1" source="3aWx-54ZoUzIvfA6hRjI-52" target="3aWx-54ZoUzIvfA6hRjI-27">
          <mxGeometry relative="1" as="geometry">
            <Array as="points">
              <mxPoint x="1420" y="-196" />
            </Array>
          </mxGeometry>
        </mxCell>
        <mxCell id="3aWx-54ZoUzIvfA6hRjI-66" value="retrain model" style="edgeLabel;html=1;align=center;verticalAlign=middle;resizable=0;points=[];" vertex="1" connectable="0" parent="3aWx-54ZoUzIvfA6hRjI-65">
          <mxGeometry x="0.5216" y="-2" relative="1" as="geometry">
            <mxPoint as="offset" />
          </mxGeometry>
        </mxCell>
        <mxCell id="3aWx-54ZoUzIvfA6hRjI-52" value="" style="shape=image;html=1;verticalAlign=top;verticalLabelPosition=bottom;labelBackgroundColor=#ffffff;imageAspect=0;aspect=fixed;image=https://cdn2.iconfinder.com/data/icons/whcompare-isometric-web-hosting-servers/50/database-128.png" vertex="1" parent="1">
          <mxGeometry x="1630" y="-240" width="78" height="78" as="geometry" />
        </mxCell>
        <mxCell id="3aWx-54ZoUzIvfA6hRjI-62" style="edgeStyle=orthogonalEdgeStyle;rounded=0;orthogonalLoop=1;jettySize=auto;html=1;exitX=0;exitY=0.5;exitDx=0;exitDy=0;" edge="1" parent="1" source="3aWx-54ZoUzIvfA6hRjI-60" target="3aWx-54ZoUzIvfA6hRjI-12">
          <mxGeometry relative="1" as="geometry" />
        </mxCell>
        <mxCell id="3aWx-54ZoUzIvfA6hRjI-63" value="api" style="edgeLabel;html=1;align=center;verticalAlign=middle;resizable=0;points=[];" vertex="1" connectable="0" parent="3aWx-54ZoUzIvfA6hRjI-62">
          <mxGeometry x="-0.067" relative="1" as="geometry">
            <mxPoint as="offset" />
          </mxGeometry>
        </mxCell>
        <mxCell id="3aWx-54ZoUzIvfA6hRjI-60" value="send updated model weights" style="rounded=0;whiteSpace=wrap;html=1;" vertex="1" parent="1">
          <mxGeometry x="1020" y="160" width="120" height="60" as="geometry" />
        </mxCell>
      </root>
    </mxGraphModel>
  </diagram>
</mxfile>
